<svg width="82" height="14" viewBox="0 0 82 14" fill="none" xmlns="http://www.w3.org/2000/svg">
<path d="M7.93241 6.304C7.93241 5.152 7.78041 4.336 7.47641 3.856C7.18841 3.376 6.68441 3.136 5.96441 3.136C5.74041 3.136 5.50841 3.152 5.26841 3.184C5.02841 3.2 4.79641 3.224 4.57241 3.256V13H0.996406V0.808C1.30041 0.728 1.65241 0.648 2.05241 0.568C2.46841 0.471999 2.90041 0.391999 3.34841 0.328C3.81241 0.247999 4.28441 0.191999 4.76441 0.159999C5.24441 0.111999 5.71641 0.0879989 6.18041 0.0879989C7.09241 0.0879989 7.82841 0.207999 8.38841 0.448C8.96441 0.672 9.43641 0.944 9.80441 1.264C10.3164 0.895999 10.9004 0.607999 11.5564 0.399999C12.2284 0.191999 12.8444 0.0879989 13.4044 0.0879989C14.4124 0.0879989 15.2364 0.231999 15.8764 0.519999C16.5324 0.791999 17.0524 1.184 17.4364 1.696C17.8204 2.208 18.0844 2.816 18.2284 3.52C18.3724 4.224 18.4444 5.008 18.4444 5.872V13H14.8684V6.304C14.8684 5.152 14.7164 4.336 14.4124 3.856C14.1244 3.376 13.6204 3.136 12.9004 3.136C12.7084 3.136 12.4364 3.184 12.0844 3.28C11.7484 3.376 11.4684 3.496 11.2444 3.64C11.3564 4.008 11.4284 4.4 11.4604 4.816C11.4924 5.216 11.5084 5.648 11.5084 6.112V13H7.93241V6.304ZM26.5157 10.504C26.8677 10.504 27.2037 10.496 27.5237 10.48C27.8437 10.464 28.0997 10.44 28.2917 10.408V7.696C28.1477 7.664 27.9317 7.632 27.6437 7.6C27.3557 7.568 27.0917 7.552 26.8517 7.552C26.5157 7.552 26.1957 7.576 25.8917 7.624C25.6037 7.656 25.3477 7.728 25.1237 7.84C24.8997 7.952 24.7237 8.104 24.5957 8.296C24.4677 8.488 24.4037 8.728 24.4037 9.016C24.4037 9.576 24.5877 9.968 24.9557 10.192C25.3397 10.4 25.8597 10.504 26.5157 10.504ZM26.2277 0.0399995C27.2837 0.0399995 28.1637 0.159999 28.8677 0.399999C29.5717 0.639999 30.1317 0.983999 30.5477 1.432C30.9797 1.88 31.2837 2.424 31.4597 3.064C31.6357 3.704 31.7237 4.416 31.7237 5.2V12.64C31.2117 12.752 30.4997 12.88 29.5877 13.024C28.6757 13.184 27.5717 13.264 26.2757 13.264C25.4597 13.264 24.7157 13.192 24.0437 13.048C23.3877 12.904 22.8197 12.672 22.3397 12.352C21.8597 12.016 21.4917 11.584 21.2357 11.056C20.9797 10.528 20.8517 9.88 20.8517 9.112C20.8517 8.376 20.9957 7.752 21.2837 7.24C21.5877 6.728 21.9877 6.32 22.4837 6.016C22.9797 5.712 23.5477 5.496 24.1877 5.368C24.8277 5.224 25.4917 5.152 26.1797 5.152C26.6437 5.152 27.0517 5.176 27.4037 5.224C27.7717 5.256 28.0677 5.304 28.2917 5.368V5.032C28.2917 4.424 28.1077 3.936 27.7397 3.568C27.3717 3.2 26.7317 3.016 25.8197 3.016C25.2117 3.016 24.6117 3.064 24.0197 3.16C23.4277 3.24 22.9157 3.36 22.4837 3.52L22.0277 0.639999C22.2357 0.575999 22.4917 0.511999 22.7957 0.448C23.1157 0.368 23.4597 0.304 23.8277 0.256C24.1957 0.191999 24.5797 0.144 24.9797 0.112C25.3957 0.0639997 25.8117 0.0399995 26.2277 0.0399995ZM41.8933 6.304C41.8933 5.152 41.7413 4.336 41.4373 3.856C41.1493 3.376 40.6453 3.136 39.9253 3.136C39.7013 3.136 39.4693 3.152 39.2293 3.184C38.9893 3.2 38.7573 3.224 38.5333 3.256V13H34.9573V0.808C35.2613 0.728 35.6133 0.648 36.0133 0.568C36.4293 0.471999 36.8613 0.391999 37.3093 0.328C37.7733 0.247999 38.2453 0.191999 38.7253 0.159999C39.2053 0.111999 39.6773 0.0879989 40.1413 0.0879989C41.0533 0.0879989 41.7893 0.207999 42.3493 0.448C42.9253 0.672 43.3973 0.944 43.7653 1.264C44.2773 0.895999 44.8613 0.607999 45.5173 0.399999C46.1893 0.191999 46.8053 0.0879989 47.3653 0.0879989C48.3733 0.0879989 49.1973 0.231999 49.8373 0.519999C50.4933 0.791999 51.0133 1.184 51.3973 1.696C51.7813 2.208 52.0453 2.816 52.1893 3.52C52.3333 4.224 52.4053 5.008 52.4053 5.872V13H48.8293V6.304C48.8293 5.152 48.6773 4.336 48.3733 3.856C48.0853 3.376 47.5813 3.136 46.8613 3.136C46.6693 3.136 46.3973 3.184 46.0453 3.28C45.7093 3.376 45.4293 3.496 45.2053 3.64C45.3173 4.008 45.3893 4.4 45.4213 4.816C45.4533 5.216 45.4693 5.648 45.4693 6.112V13H41.8933V6.304ZM67.4607 6.664C67.4607 7.656 67.3167 8.568 67.0287 9.4C66.7407 10.216 66.3247 10.92 65.7807 11.512C65.2367 12.088 64.5807 12.536 63.8127 12.856C63.0607 13.176 62.2127 13.336 61.2687 13.336C60.3407 13.336 59.4927 13.176 58.7247 12.856C57.9727 12.536 57.3247 12.088 56.7807 11.512C56.2367 10.92 55.8127 10.216 55.5087 9.4C55.2047 8.568 55.0527 7.656 55.0527 6.664C55.0527 5.672 55.2047 4.768 55.5087 3.952C55.8287 3.136 56.2607 2.44 56.8047 1.864C57.3647 1.288 58.0207 0.84 58.7727 0.519999C59.5407 0.199999 60.3727 0.0399995 61.2687 0.0399995C62.1807 0.0399995 63.0127 0.199999 63.7647 0.519999C64.5327 0.84 65.1887 1.288 65.7327 1.864C66.2767 2.44 66.7007 3.136 67.0047 3.952C67.3087 4.768 67.4607 5.672 67.4607 6.664ZM63.8127 6.664C63.8127 5.56 63.5887 4.696 63.1407 4.072C62.7087 3.432 62.0847 3.112 61.2687 3.112C60.4527 3.112 59.8207 3.432 59.3727 4.072C58.9247 4.696 58.7007 5.56 58.7007 6.664C58.7007 7.768 58.9247 8.648 59.3727 9.304C59.8207 9.944 60.4527 10.264 61.2687 10.264C62.0847 10.264 62.7087 9.944 63.1407 9.304C63.5887 8.648 63.8127 7.768 63.8127 6.664ZM70.2308 0.808C70.8388 0.631999 71.6228 0.471999 72.5828 0.328C73.5428 0.167999 74.5508 0.0879989 75.6068 0.0879989C76.6788 0.0879989 77.5668 0.231999 78.2708 0.519999C78.9908 0.791999 79.5588 1.184 79.9748 1.696C80.3908 2.208 80.6868 2.816 80.8628 3.52C81.0388 4.224 81.1268 5.008 81.1268 5.872V13H77.5508V6.304C77.5508 5.152 77.3988 4.336 77.0948 3.856C76.7908 3.376 76.2228 3.136 75.3908 3.136C75.1348 3.136 74.8628 3.152 74.5748 3.184C74.2868 3.2 74.0308 3.224 73.8068 3.256V13H70.2308V0.808Z" fill="#202020"/>
</svg>
